<svg width="76" height="77" viewBox="0 0 76 77" fill="none" xmlns="http://www.w3.org/2000/svg">
<g clip-path="url(#clip0_662_7203)">
<rect width="75.8545" height="76.8796" rx="37.9273" fill="url(#paint0_linear_662_7203)"/>
<path d="M39.3047 -1.28027V34.0351C38.8397 33.9547 38.3684 33.917 37.8966 33.9224C37.4247 33.917 36.9534 33.9547 36.4884 34.0351V-1.28027M44.7963 45.1873C44.7314 45.4498 44.6515 45.7084 44.5569 45.9617L47.9027 47.8751C48.6811 48.3202 49.1614 49.1482 49.1614 50.0449V53.6359C49.1614 54.4136 48.531 55.044 47.7533 55.044C46.9756 55.044 46.3452 54.4136 46.3452 53.6359V51.3118C46.3452 50.6419 45.986 50.0233 45.4042 49.6912L43.1629 48.4118C42.5099 49.1686 41.7014 49.7757 40.7927 50.1918C39.8839 50.608 38.8961 50.8234 37.8966 50.8234C36.897 50.8234 35.9092 50.608 35.0004 50.1918C34.0917 49.7757 33.2832 49.1686 32.6302 48.4118L30.3889 49.6912C29.8071 50.0233 29.4479 50.6419 29.4479 51.3118V53.6359C29.4479 54.4136 28.8175 55.044 28.0398 55.044C27.2621 55.044 26.6317 54.4136 26.6317 53.6359V50.0449C26.6317 49.1482 27.112 48.3202 27.8904 47.8751L31.2362 45.9617C31.1416 45.7084 31.0617 45.4498 30.9968 45.1873H29.072C28.6744 45.1873 28.2856 45.3048 27.9546 45.5251L25.7603 46.9853C25.1143 47.4152 24.242 47.2391 23.8134 46.5922C23.3864 45.9478 23.561 45.0795 24.2039 44.6502L27.0132 42.7745C27.4071 42.5115 27.8702 42.3711 28.3439 42.3711H30.9968C31.0852 41.9472 31.2125 41.5324 31.377 41.1319L29.9474 40.2155C29.4577 39.9016 28.8605 39.8027 28.2958 39.9419L25.5663 40.6147C24.7874 40.8067 24.001 40.3281 23.8138 39.548C23.6279 38.7733 24.1035 37.9941 24.8776 37.8054L28.5934 36.8995C29.3088 36.7251 30.0644 36.8571 30.6783 37.2637L32.9682 38.7804C34.2843 37.4904 36.0537 36.7678 37.8966 36.7678C39.7394 36.7678 41.5089 37.4904 42.8249 38.7804L45.0506 37.2802C45.6691 36.8634 46.4343 36.7257 47.1592 36.9009L50.9152 37.8084C51.689 37.9953 52.1651 38.7736 51.9794 39.5476C51.7922 40.3273 51.0054 40.8048 50.2274 40.6109L47.498 39.9304C46.933 39.7896 46.3349 39.8879 45.8446 40.2021L44.4161 41.1179C44.5815 41.5229 44.7088 41.9424 44.7963 42.3711H47.454C47.9247 42.3711 48.3848 42.51 48.7768 42.7706L51.5849 44.6368C52.2298 45.0654 52.4057 45.9354 51.9779 46.5808C51.55 47.2267 50.6796 47.4035 50.0335 46.9759L47.3309 45.1873M36.4884 43.7792C36.4884 43.5007 36.4059 43.2284 36.2511 42.9969C36.0964 42.7653 35.8765 42.5848 35.6192 42.4783C35.3619 42.3717 35.0788 42.3438 34.8056 42.3981C34.5325 42.4524 34.2816 42.5866 34.0847 42.7835C33.8877 42.9804 33.7536 43.2313 33.6993 43.5045C33.645 43.7776 33.6728 44.0607 33.7794 44.318C33.886 44.5753 34.0665 44.7952 34.298 44.95C34.5296 45.1047 34.8018 45.1873 35.0803 45.1873C35.4538 45.1873 35.8119 45.0389 36.076 44.7749C36.3401 44.5108 36.4884 44.1526 36.4884 43.7792ZM42.1209 43.7792C42.1209 43.5007 42.0383 43.2284 41.8836 42.9969C41.7288 42.7653 41.5089 42.5848 41.2516 42.4783C40.9943 42.3717 40.7112 42.3438 40.4381 42.3981C40.1649 42.4524 39.914 42.5866 39.7171 42.7835C39.5202 42.9804 39.386 43.2313 39.3317 43.5045C39.2774 43.7776 39.3053 44.0607 39.4118 44.318C39.5184 44.5753 39.6989 44.7952 39.9305 44.95C40.162 45.1047 40.4343 45.1873 40.7128 45.1873C41.0862 45.1873 41.4444 45.0389 41.7085 44.7749C41.9725 44.5108 42.1209 44.1526 42.1209 43.7792Z" fill="white"/>
</g>
<defs>
<linearGradient id="paint0_linear_662_7203" x1="37.9273" y1="0" x2="37.9273" y2="76.8796" gradientUnits="userSpaceOnUse">
<stop stop-color="#0367D3"/>
<stop offset="1" stop-color="#3284DD"/>
</linearGradient>
<clipPath id="clip0_662_7203">
<rect width="75.8545" height="76.8796" rx="37.9273" fill="white"/>
</clipPath>
</defs>
</svg>
